<?xml version="1.0" encoding="utf-8" standalone="no"?>
<!DOCTYPE svg PUBLIC "-//W3C//DTD SVG 1.1//EN"
  "http://www.w3.org/Graphics/SVG/1.1/DTD/svg11.dtd">
<!-- Created with matplotlib (http://matplotlib.org/) -->
<svg height="396pt" version="1.1" viewBox="0 0 576 396" width="576pt" xmlns="http://www.w3.org/2000/svg" xmlns:xlink="http://www.w3.org/1999/xlink">
 <defs>
  <style type="text/css">
*{stroke-linecap:butt;stroke-linejoin:round;}
  </style>
 </defs>
 <g id="figure_1">
  <g id="patch_1">
   <path d="
M0 396
L576 396
L576 0
L0 0
z
" style="fill:#ffffff;"/>
  </g>
  <g id="axes_1">
   <g id="patch_2">
    <path d="
M57.6 336.6
L518.4 336.6
L518.4 39.6
L57.6 39.6
z
" style="fill:#e5e5e5;"/>
   </g>
   <g id="matplotlib.axis_1">
    <g id="xtick_1">
     <g id="line2d_1">
      <path clip-path="url(#p9ca27924af)" d="
M134.4 336.6
L134.4 39.6" style="fill:none;stroke:#ffffff;stroke-linecap:round;"/>
     </g>
     <g id="line2d_2">
      <defs>
       <path d="
M0 0
L0 0" id="mbebddedda8" style="stroke:#555555;"/>
      </defs>
      <g>
       <use style="fill:#555555;stroke:#555555;" x="134.4" xlink:href="#mbebddedda8" y="336.6"/>
      </g>
     </g>
     <g id="line2d_3">
      <g>
       <use style="fill:#555555;stroke:#555555;" x="134.4" xlink:href="#mbebddedda8" y="39.6"/>
      </g>
     </g>
     <g id="text_1">
      <!-- 1 -->
      <defs>
       <path d="
M37.25 0
L28.4688 0
L28.4688 56
Q25.2969 52.9844 20.1406 49.9531
Q14.9844 46.9219 10.8906 45.4062
L10.8906 53.9062
Q18.2656 57.375 23.7812 62.2969
Q29.2969 67.2344 31.5938 71.875
L37.25 71.875
z
" id="ArialMT-31"/>
      </defs>
      <g style="fill:#555555;" transform="translate(133.08203125 350.7578125)scale(0.1 -0.1)">
       <use xlink:href="#ArialMT-31"/>
      </g>
     </g>
    </g>
    <g id="xtick_2">
     <g id="line2d_4">
      <path clip-path="url(#p9ca27924af)" d="
M288 336.6
L288 39.6" style="fill:none;stroke:#ffffff;stroke-linecap:round;"/>
     </g>
     <g id="line2d_5">
      <g>
       <use style="fill:#555555;stroke:#555555;" x="288.0" xlink:href="#mbebddedda8" y="336.6"/>
      </g>
     </g>
     <g id="line2d_6">
      <g>
       <use style="fill:#555555;stroke:#555555;" x="288.0" xlink:href="#mbebddedda8" y="39.6"/>
      </g>
     </g>
     <g id="text_2">
      <!-- 2 -->
      <defs>
       <path d="
M50.3438 8.45312
L50.3438 0
L3.03125 0
Q2.9375 3.17188 4.04688 6.10938
Q5.85938 10.9375 9.82812 15.625
Q13.8125 20.3125 21.3438 26.4688
Q33.0156 36.0312 37.1094 41.625
Q41.2188 47.2188 41.2188 52.2031
Q41.2188 57.4219 37.4688 61
Q33.7344 64.5938 27.7344 64.5938
Q21.3906 64.5938 17.5781 60.7812
Q13.7656 56.9844 13.7188 50.25
L4.6875 51.1719
Q5.60938 61.2812 11.6562 66.5781
Q17.7188 71.875 27.9375 71.875
Q38.2344 71.875 44.2344 66.1562
Q50.25 60.4531 50.25 52
Q50.25 47.7031 48.4844 43.5469
Q46.7344 39.4062 42.6562 34.8125
Q38.5781 30.2188 29.1094 22.2188
Q21.1875 15.5781 18.9375 13.2031
Q16.7031 10.8438 15.2344 8.45312
z
" id="ArialMT-32"/>
      </defs>
      <g style="fill:#555555;" transform="translate(285.6296875 350.7578125)scale(0.1 -0.1)">
       <use xlink:href="#ArialMT-32"/>
      </g>
     </g>
    </g>
    <g id="xtick_3">
     <g id="line2d_7">
      <path clip-path="url(#p9ca27924af)" d="
M441.6 336.6
L441.6 39.6" style="fill:none;stroke:#ffffff;stroke-linecap:round;"/>
     </g>
     <g id="line2d_8">
      <g>
       <use style="fill:#555555;stroke:#555555;" x="441.6" xlink:href="#mbebddedda8" y="336.6"/>
      </g>
     </g>
     <g id="line2d_9">
      <g>
       <use style="fill:#555555;stroke:#555555;" x="441.6" xlink:href="#mbebddedda8" y="39.6"/>
      </g>
     </g>
     <g id="text_3">
      <!-- 3 -->
      <defs>
       <path d="
M4.20312 18.8906
L12.9844 20.0625
Q14.5 12.5938 18.1406 9.29688
Q21.7812 6 27 6
Q33.2031 6 37.4688 10.2969
Q41.75 14.5938 41.75 20.9531
Q41.75 27 37.7969 30.9219
Q33.8438 34.8594 27.7344 34.8594
Q25.25 34.8594 21.5312 33.8906
L22.5156 41.6094
Q23.3906 41.5 23.9219 41.5
Q29.5469 41.5 34.0312 44.4219
Q38.5312 47.3594 38.5312 53.4688
Q38.5312 58.2969 35.25 61.4688
Q31.9844 64.6562 26.8125 64.6562
Q21.6875 64.6562 18.2656 61.4219
Q14.8438 58.2031 13.875 51.7656
L5.07812 53.3281
Q6.6875 62.1562 12.3906 67.0156
Q18.1094 71.875 26.6094 71.875
Q32.4688 71.875 37.3906 69.3594
Q42.3281 66.8438 44.9375 62.5
Q47.5625 58.1562 47.5625 53.2656
Q47.5625 48.6406 45.0625 44.8281
Q42.5781 41.0156 37.7031 38.7656
Q44.0469 37.3125 47.5625 32.6875
Q51.0781 28.0781 51.0781 21.1406
Q51.0781 11.7656 44.2344 5.25
Q37.4062 -1.26562 26.9531 -1.26562
Q17.5312 -1.26562 11.2969 4.34375
Q5.07812 9.96875 4.20312 18.8906" id="ArialMT-33"/>
      </defs>
      <g style="fill:#555555;" transform="translate(439.25625 350.7578125)scale(0.1 -0.1)">
       <use xlink:href="#ArialMT-33"/>
      </g>
     </g>
    </g>
    <g id="text_4">
     <!-- level Label -->
     <defs>
      <path d="
M14.7031 0
L6.54688 0
L6.54688 71.5781
L15.3281 71.5781
L15.3281 46.0469
Q20.9062 53.0312 29.5469 53.0312
Q34.3281 53.0312 38.5938 51.0938
Q42.875 49.1719 45.625 45.6719
Q48.3906 42.1875 49.9531 37.25
Q51.5156 32.3281 51.5156 26.7031
Q51.5156 13.375 44.9219 6.09375
Q38.3281 -1.17188 29.1094 -1.17188
Q19.9219 -1.17188 14.7031 6.5
z

M14.5938 26.3125
Q14.5938 17 17.1406 12.8438
Q21.2969 6.0625 28.375 6.0625
Q34.125 6.0625 38.3281 11.0625
Q42.5312 16.0625 42.5312 25.9844
Q42.5312 36.1406 38.5 40.9688
Q34.4688 45.7969 28.7656 45.7969
Q23 45.7969 18.7969 40.7969
Q14.5938 35.7969 14.5938 26.3125" id="ArialMT-62"/>
      <path d="
M40.4375 6.39062
Q35.5469 2.25 31.0312 0.53125
Q26.5156 -1.17188 21.3438 -1.17188
Q12.7969 -1.17188 8.20312 3
Q3.60938 7.17188 3.60938 13.6719
Q3.60938 17.4844 5.34375 20.625
Q7.07812 23.7812 9.89062 25.6875
Q12.7031 27.5938 16.2188 28.5625
Q18.7969 29.25 24.0312 29.8906
Q34.6719 31.1562 39.7031 32.9062
Q39.75 34.7188 39.75 35.2031
Q39.75 40.5781 37.25 42.7812
Q33.8906 45.75 27.25 45.75
Q21.0469 45.75 18.0938 43.5781
Q15.1406 41.4062 13.7188 35.8906
L5.125 37.0625
Q6.29688 42.5781 8.98438 45.9688
Q11.6719 49.3594 16.75 51.1875
Q21.8281 53.0312 28.5156 53.0312
Q35.1562 53.0312 39.2969 51.4688
Q43.4531 49.9062 45.4062 47.5312
Q47.3594 45.1719 48.1406 41.5469
Q48.5781 39.3125 48.5781 33.4531
L48.5781 21.7344
Q48.5781 9.46875 49.1406 6.21875
Q49.7031 2.98438 51.375 0
L42.1875 0
Q40.8281 2.73438 40.4375 6.39062
M39.7031 26.0312
Q34.9062 24.0781 25.3438 22.7031
Q19.9219 21.9219 17.6719 20.9375
Q15.4375 19.9688 14.2031 18.0938
Q12.9844 16.2188 12.9844 13.9219
Q12.9844 10.4062 15.6406 8.0625
Q18.3125 5.71875 23.4375 5.71875
Q28.5156 5.71875 32.4688 7.9375
Q36.4219 10.1562 38.2812 14.0156
Q39.7031 17 39.7031 22.7969
z
" id="ArialMT-61"/>
      <path d="
M42.0938 16.7031
L51.1719 15.5781
Q49.0312 7.625 43.2188 3.21875
Q37.4062 -1.17188 28.375 -1.17188
Q17 -1.17188 10.3281 5.82812
Q3.65625 12.8438 3.65625 25.4844
Q3.65625 38.5781 10.3906 45.7969
Q17.1406 53.0312 27.875 53.0312
Q38.2812 53.0312 44.875 45.9531
Q51.4688 38.875 51.4688 26.0312
Q51.4688 25.25 51.4219 23.6875
L12.75 23.6875
Q13.2344 15.1406 17.5781 10.5938
Q21.9219 6.0625 28.4219 6.0625
Q33.25 6.0625 36.6719 8.59375
Q40.0938 11.1406 42.0938 16.7031
M13.2344 30.9062
L42.1875 30.9062
Q41.6094 37.4531 38.875 40.7188
Q34.6719 45.7969 27.9844 45.7969
Q21.9219 45.7969 17.7969 41.75
Q13.6719 37.7031 13.2344 30.9062" id="ArialMT-65"/>
      <path d="
M21 0
L1.26562 51.8594
L10.5469 51.8594
L21.6875 20.7969
Q23.4844 15.7656 25 10.3594
Q26.1719 14.4531 28.2656 20.2188
L39.7969 51.8594
L48.8281 51.8594
L29.2031 0
z
" id="ArialMT-76"/>
      <path d="
M6.39062 0
L6.39062 71.5781
L15.1875 71.5781
L15.1875 0
z
" id="ArialMT-6c"/>
      <path d="
M7.32812 0
L7.32812 71.5781
L16.7969 71.5781
L16.7969 8.45312
L52.0469 8.45312
L52.0469 0
z
" id="ArialMT-4c"/>
      <path id="ArialMT-20"/>
     </defs>
     <g style="fill:#555555;" transform="translate(259.73625 366.3346875)scale(0.12 -0.12)">
      <use xlink:href="#ArialMT-6c"/>
      <use x="22.216796875" xlink:href="#ArialMT-65"/>
      <use x="77.83203125" xlink:href="#ArialMT-76"/>
      <use x="127.83203125" xlink:href="#ArialMT-65"/>
      <use x="183.447265625" xlink:href="#ArialMT-6c"/>
      <use x="205.6640625" xlink:href="#ArialMT-20"/>
      <use x="233.447265625" xlink:href="#ArialMT-4c"/>
      <use x="289.0625" xlink:href="#ArialMT-61"/>
      <use x="344.677734375" xlink:href="#ArialMT-62"/>
      <use x="400.29296875" xlink:href="#ArialMT-65"/>
      <use x="455.908203125" xlink:href="#ArialMT-6c"/>
     </g>
    </g>
   </g>
   <g id="matplotlib.axis_2">
    <g id="ytick_1">
     <g id="line2d_10">
      <path clip-path="url(#p9ca27924af)" d="
M57.6 336.6
L518.4 336.6" style="fill:none;stroke:#ffffff;stroke-linecap:round;"/>
     </g>
     <g id="line2d_11">
      <g>
       <use style="fill:#555555;stroke:#555555;" x="57.6" xlink:href="#mbebddedda8" y="336.6"/>
      </g>
     </g>
     <g id="line2d_12">
      <g>
       <use style="fill:#555555;stroke:#555555;" x="518.4" xlink:href="#mbebddedda8" y="336.6"/>
      </g>
     </g>
     <g id="text_5">
      <!-- 5.0 -->
      <defs>
       <path d="
M4.15625 35.2969
Q4.15625 48 6.76562 55.7344
Q9.375 63.4844 14.5156 67.6719
Q19.6719 71.875 27.4844 71.875
Q33.25 71.875 37.5938 69.5469
Q41.9375 67.2344 44.7656 62.8594
Q47.6094 58.5 49.2188 52.2188
Q50.8281 45.9531 50.8281 35.2969
Q50.8281 22.7031 48.2344 14.9688
Q45.6562 7.23438 40.5 3
Q35.3594 -1.21875 27.4844 -1.21875
Q17.1406 -1.21875 11.2344 6.20312
Q4.15625 15.1406 4.15625 35.2969
M13.1875 35.2969
Q13.1875 17.6719 17.3125 11.8281
Q21.4375 6 27.4844 6
Q33.5469 6 37.6719 11.8594
Q41.7969 17.7188 41.7969 35.2969
Q41.7969 52.9844 37.6719 58.7812
Q33.5469 64.5938 27.3906 64.5938
Q21.3438 64.5938 17.7188 59.4688
Q13.1875 52.9375 13.1875 35.2969" id="ArialMT-30"/>
       <path d="
M9.07812 0
L9.07812 10.0156
L19.0938 10.0156
L19.0938 0
z
" id="ArialMT-2e"/>
       <path d="
M4.15625 18.75
L13.375 19.5312
Q14.4062 12.7969 18.1406 9.39062
Q21.875 6 27.1562 6
Q33.5 6 37.8906 10.7812
Q42.2812 15.5781 42.2812 23.4844
Q42.2812 31 38.0625 35.3438
Q33.8438 39.7031 27 39.7031
Q22.75 39.7031 19.3281 37.7656
Q15.9219 35.8438 13.9688 32.7656
L5.71875 33.8438
L12.6406 70.6094
L48.25 70.6094
L48.25 62.2031
L19.6719 62.2031
L15.8281 42.9688
Q22.2656 47.4688 29.3438 47.4688
Q38.7188 47.4688 45.1562 40.9688
Q51.6094 34.4688 51.6094 24.2656
Q51.6094 14.5469 45.9531 7.46875
Q39.0625 -1.21875 27.1562 -1.21875
Q17.3906 -1.21875 11.2031 4.25
Q5.03125 9.71875 4.15625 18.75" id="ArialMT-35"/>
      </defs>
      <g style="fill:#555555;" transform="translate(37.59375 339.18515625)scale(0.1 -0.1)">
       <use xlink:href="#ArialMT-35"/>
       <use x="55.615234375" xlink:href="#ArialMT-2e"/>
       <use x="83.3984375" xlink:href="#ArialMT-30"/>
      </g>
     </g>
    </g>
    <g id="ytick_2">
     <g id="line2d_13">
      <path clip-path="url(#p9ca27924af)" d="
M57.6 277.2
L518.4 277.2" style="fill:none;stroke:#ffffff;stroke-linecap:round;"/>
     </g>
     <g id="line2d_14">
      <g>
       <use style="fill:#555555;stroke:#555555;" x="57.6" xlink:href="#mbebddedda8" y="277.2"/>
      </g>
     </g>
     <g id="line2d_15">
      <g>
       <use style="fill:#555555;stroke:#555555;" x="518.4" xlink:href="#mbebddedda8" y="277.2"/>
      </g>
     </g>
     <g id="text_6">
      <!-- 5.5 -->
      <g style="fill:#555555;" transform="translate(37.515625 279.78515625)scale(0.1 -0.1)">
       <use xlink:href="#ArialMT-35"/>
       <use x="55.615234375" xlink:href="#ArialMT-2e"/>
       <use x="83.3984375" xlink:href="#ArialMT-35"/>
      </g>
     </g>
    </g>
    <g id="ytick_3">
     <g id="line2d_16">
      <path clip-path="url(#p9ca27924af)" d="
M57.6 217.8
L518.4 217.8" style="fill:none;stroke:#ffffff;stroke-linecap:round;"/>
     </g>
     <g id="line2d_17">
      <g>
       <use style="fill:#555555;stroke:#555555;" x="57.6" xlink:href="#mbebddedda8" y="217.8"/>
      </g>
     </g>
     <g id="line2d_18">
      <g>
       <use style="fill:#555555;stroke:#555555;" x="518.4" xlink:href="#mbebddedda8" y="217.8"/>
      </g>
     </g>
     <g id="text_7">
      <!-- 6.0 -->
      <defs>
       <path d="
M49.75 54.0469
L41.0156 53.375
Q39.8438 58.5469 37.7031 60.8906
Q34.125 64.6562 28.9062 64.6562
Q24.7031 64.6562 21.5312 62.3125
Q17.3906 59.2812 14.9844 53.4688
Q12.5938 47.6562 12.5 36.9219
Q15.6719 41.75 20.2656 44.0938
Q24.8594 46.4375 29.8906 46.4375
Q38.6719 46.4375 44.8438 39.9688
Q51.0312 33.5 51.0312 23.25
Q51.0312 16.5 48.125 10.7188
Q45.2188 4.9375 40.1406 1.85938
Q35.0625 -1.21875 28.6094 -1.21875
Q17.625 -1.21875 10.6875 6.85938
Q3.76562 14.9375 3.76562 33.5
Q3.76562 54.25 11.4219 63.6719
Q18.1094 71.875 29.4375 71.875
Q37.8906 71.875 43.2812 67.1406
Q48.6875 62.4062 49.75 54.0469
M13.875 23.1875
Q13.875 18.6562 15.7969 14.5
Q17.7188 10.3594 21.1875 8.17188
Q24.6562 6 28.4688 6
Q34.0312 6 38.0312 10.4844
Q42.0469 14.9844 42.0469 22.7031
Q42.0469 30.125 38.0781 34.3906
Q34.125 38.6719 28.125 38.6719
Q22.1719 38.6719 18.0156 34.3906
Q13.875 30.125 13.875 23.1875" id="ArialMT-36"/>
      </defs>
      <g style="fill:#555555;" transform="translate(37.5546875 220.38515625)scale(0.1 -0.1)">
       <use xlink:href="#ArialMT-36"/>
       <use x="55.615234375" xlink:href="#ArialMT-2e"/>
       <use x="83.3984375" xlink:href="#ArialMT-30"/>
      </g>
     </g>
    </g>
    <g id="ytick_4">
     <g id="line2d_19">
      <path clip-path="url(#p9ca27924af)" d="
M57.6 158.4
L518.4 158.4" style="fill:none;stroke:#ffffff;stroke-linecap:round;"/>
     </g>
     <g id="line2d_20">
      <g>
       <use style="fill:#555555;stroke:#555555;" x="57.6" xlink:href="#mbebddedda8" y="158.4"/>
      </g>
     </g>
     <g id="line2d_21">
      <g>
       <use style="fill:#555555;stroke:#555555;" x="518.4" xlink:href="#mbebddedda8" y="158.4"/>
      </g>
     </g>
     <g id="text_8">
      <!-- 6.5 -->
      <g style="fill:#555555;" transform="translate(37.4765625 160.98515625)scale(0.1 -0.1)">
       <use xlink:href="#ArialMT-36"/>
       <use x="55.615234375" xlink:href="#ArialMT-2e"/>
       <use x="83.3984375" xlink:href="#ArialMT-35"/>
      </g>
     </g>
    </g>
    <g id="ytick_5">
     <g id="line2d_22">
      <path clip-path="url(#p9ca27924af)" d="
M57.6 99
L518.4 99" style="fill:none;stroke:#ffffff;stroke-linecap:round;"/>
     </g>
     <g id="line2d_23">
      <g>
       <use style="fill:#555555;stroke:#555555;" x="57.6" xlink:href="#mbebddedda8" y="99.0"/>
      </g>
     </g>
     <g id="line2d_24">
      <g>
       <use style="fill:#555555;stroke:#555555;" x="518.4" xlink:href="#mbebddedda8" y="99.0"/>
      </g>
     </g>
     <g id="text_9">
      <!-- 7.0 -->
      <defs>
       <path d="
M4.73438 62.2031
L4.73438 70.6562
L51.0781 70.6562
L51.0781 63.8125
Q44.2344 56.5469 37.5156 44.4844
Q30.8125 32.4219 27.1562 19.6719
Q24.5156 10.6875 23.7812 0
L14.75 0
Q14.8906 8.45312 18.0625 20.4062
Q21.2344 32.375 27.1719 43.4844
Q33.1094 54.5938 39.7969 62.2031
z
" id="ArialMT-37"/>
      </defs>
      <g style="fill:#555555;" transform="translate(37.6515625 101.58515625)scale(0.1 -0.1)">
       <use xlink:href="#ArialMT-37"/>
       <use x="55.615234375" xlink:href="#ArialMT-2e"/>
       <use x="83.3984375" xlink:href="#ArialMT-30"/>
      </g>
     </g>
    </g>
    <g id="ytick_6">
     <g id="line2d_25">
      <path clip-path="url(#p9ca27924af)" d="
M57.6 39.6
L518.4 39.6" style="fill:none;stroke:#ffffff;stroke-linecap:round;"/>
     </g>
     <g id="line2d_26">
      <g>
       <use style="fill:#555555;stroke:#555555;" x="57.6" xlink:href="#mbebddedda8" y="39.6"/>
      </g>
     </g>
     <g id="line2d_27">
      <g>
       <use style="fill:#555555;stroke:#555555;" x="518.4" xlink:href="#mbebddedda8" y="39.6"/>
      </g>
     </g>
     <g id="text_10">
      <!-- 7.5 -->
      <g style="fill:#555555;" transform="translate(37.5734375 42.18515625)scale(0.1 -0.1)">
       <use xlink:href="#ArialMT-37"/>
       <use x="55.615234375" xlink:href="#ArialMT-2e"/>
       <use x="83.3984375" xlink:href="#ArialMT-35"/>
      </g>
     </g>
    </g>
    <g id="text_11">
     <!-- Average Length of Verbs -->
     <defs>
      <path d="
M4.98438 -4.29688
L13.5312 -5.5625
Q14.0625 -9.51562 16.5 -11.3281
Q19.7812 -13.7656 25.4375 -13.7656
Q31.5469 -13.7656 34.8594 -11.3281
Q38.1875 -8.89062 39.3594 -4.5
Q40.0469 -1.8125 39.9844 6.78125
Q34.2344 0 25.6406 0
Q14.9375 0 9.07812 7.71875
Q3.21875 15.4375 3.21875 26.2188
Q3.21875 33.6406 5.90625 39.9062
Q8.59375 46.1875 13.6875 49.6094
Q18.7969 53.0312 25.6875 53.0312
Q34.8594 53.0312 40.8281 45.6094
L40.8281 51.8594
L48.9219 51.8594
L48.9219 7.03125
Q48.9219 -5.07812 46.4531 -10.125
Q44 -15.1875 38.6406 -18.1094
Q33.2969 -21.0469 25.4844 -21.0469
Q16.2188 -21.0469 10.5 -16.875
Q4.78125 -12.7031 4.98438 -4.29688
M12.25 26.8594
Q12.25 16.6562 16.2969 11.9688
Q20.3594 7.28125 26.4688 7.28125
Q32.5156 7.28125 36.6094 11.9375
Q40.7188 16.6094 40.7188 26.5625
Q40.7188 36.0781 36.5 40.9062
Q32.2812 45.75 26.3125 45.75
Q20.4531 45.75 16.3438 40.9844
Q12.25 36.2344 12.25 26.8594" id="ArialMT-67"/>
      <path d="
M8.6875 0
L8.6875 45.0156
L0.921875 45.0156
L0.921875 51.8594
L8.6875 51.8594
L8.6875 57.375
Q8.6875 62.5938 9.625 65.1406
Q10.8906 68.5625 14.0781 70.6719
Q17.2812 72.7969 23.0469 72.7969
Q26.7656 72.7969 31.25 71.9219
L29.9375 64.2656
Q27.2031 64.75 24.75 64.75
Q20.75 64.75 19.0938 63.0312
Q17.4375 61.3281 17.4375 56.6406
L17.4375 51.8594
L27.5469 51.8594
L27.5469 45.0156
L17.4375 45.0156
L17.4375 0
z
" id="ArialMT-66"/>
      <path d="
M-0.140625 0
L27.3438 71.5781
L37.5469 71.5781
L66.8438 0
L56.0625 0
L47.7031 21.6875
L17.7812 21.6875
L9.90625 0
z

M20.5156 29.3906
L44.7812 29.3906
L37.3125 49.2188
Q33.8906 58.25 32.2344 64.0625
Q30.8594 57.1719 28.375 50.3906
z
" id="ArialMT-41"/>
      <path d="
M6.59375 0
L6.59375 71.5781
L15.375 71.5781
L15.375 45.9062
Q21.5312 53.0312 30.9062 53.0312
Q36.6719 53.0312 40.9219 50.75
Q45.1719 48.4844 47 44.4844
Q48.8281 40.4844 48.8281 32.8594
L48.8281 0
L40.0469 0
L40.0469 32.8594
Q40.0469 39.4531 37.1875 42.4531
Q34.3281 45.4531 29.1094 45.4531
Q25.2031 45.4531 21.75 43.4219
Q18.3125 41.4062 16.8438 37.9375
Q15.375 34.4688 15.375 28.375
L15.375 0
z
" id="ArialMT-68"/>
      <path d="
M28.1719 0
L0.4375 71.5781
L10.6875 71.5781
L29.2969 19.5781
Q31.5469 13.3281 33.0625 7.85938
Q34.7188 13.7188 36.9219 19.5781
L56.25 71.5781
L65.9219 71.5781
L37.8906 0
z
" id="ArialMT-56"/>
      <path d="
M6.5 0
L6.5 51.8594
L14.4062 51.8594
L14.4062 44
Q17.4375 49.5156 20 51.2656
Q22.5625 53.0312 25.6406 53.0312
Q30.0781 53.0312 34.6719 50.2031
L31.6406 42.0469
Q28.4219 43.9531 25.2031 43.9531
Q22.3125 43.9531 20.0156 42.2188
Q17.7188 40.4844 16.75 37.4062
Q15.2812 32.7188 15.2812 27.1562
L15.2812 0
z
" id="ArialMT-72"/>
      <path d="
M3.07812 15.4844
L11.7656 16.8438
Q12.5 11.625 15.8438 8.84375
Q19.1875 6.0625 25.2031 6.0625
Q31.25 6.0625 34.1719 8.51562
Q37.1094 10.9844 37.1094 14.3125
Q37.1094 17.2812 34.5156 19
Q32.7188 20.1719 25.5312 21.9688
Q15.875 24.4219 12.1406 26.2031
Q8.40625 27.9844 6.46875 31.125
Q4.54688 34.2812 4.54688 38.0938
Q4.54688 41.5469 6.125 44.5
Q7.71875 47.4688 10.4531 49.4219
Q12.5 50.9219 16.0312 51.9688
Q19.5781 53.0312 23.6406 53.0312
Q29.7344 53.0312 34.3438 51.2656
Q38.9688 49.5156 41.1562 46.5
Q43.3594 43.5 44.1875 38.4844
L35.5938 37.3125
Q35.0156 41.3125 32.2031 43.5469
Q29.3906 45.7969 24.2656 45.7969
Q18.2188 45.7969 15.625 43.7969
Q13.0312 41.7969 13.0312 39.1094
Q13.0312 37.4062 14.1094 36.0312
Q15.1875 34.625 17.4844 33.6875
Q18.7969 33.2031 25.25 31.4531
Q34.5781 28.9531 38.25 27.3594
Q41.9375 25.7812 44.0312 22.75
Q46.1406 19.7344 46.1406 15.2344
Q46.1406 10.8438 43.5781 6.95312
Q41.0156 3.07812 36.1719 0.953125
Q31.3438 -1.17188 25.25 -1.17188
Q15.1406 -1.17188 9.84375 3.03125
Q4.54688 7.23438 3.07812 15.4844" id="ArialMT-73"/>
      <path d="
M25.7812 7.85938
L27.0469 0.09375
Q23.3438 -0.6875 20.4062 -0.6875
Q15.625 -0.6875 12.9844 0.828125
Q10.3594 2.34375 9.28125 4.8125
Q8.20312 7.28125 8.20312 15.1875
L8.20312 45.0156
L1.76562 45.0156
L1.76562 51.8594
L8.20312 51.8594
L8.20312 64.7031
L16.9375 69.9688
L16.9375 51.8594
L25.7812 51.8594
L25.7812 45.0156
L16.9375 45.0156
L16.9375 14.7031
Q16.9375 10.9375 17.4062 9.85938
Q17.875 8.79688 18.9219 8.15625
Q19.9688 7.51562 21.9219 7.51562
Q23.3906 7.51562 25.7812 7.85938" id="ArialMT-74"/>
      <path d="
M3.32812 25.9219
Q3.32812 40.3281 11.3281 47.2656
Q18.0156 53.0312 27.6406 53.0312
Q38.3281 53.0312 45.1094 46.0156
Q51.9062 39.0156 51.9062 26.6562
Q51.9062 16.6562 48.9062 10.9062
Q45.9062 5.17188 40.1562 2
Q34.4219 -1.17188 27.6406 -1.17188
Q16.75 -1.17188 10.0312 5.8125
Q3.32812 12.7969 3.32812 25.9219
M12.3594 25.9219
Q12.3594 15.9688 16.7031 11.0156
Q21.0469 6.0625 27.6406 6.0625
Q34.1875 6.0625 38.5312 11.0312
Q42.875 16.0156 42.875 26.2188
Q42.875 35.8438 38.5 40.7969
Q34.125 45.75 27.6406 45.75
Q21.0469 45.75 16.7031 40.8125
Q12.3594 35.8906 12.3594 25.9219" id="ArialMT-6f"/>
      <path d="
M6.59375 0
L6.59375 51.8594
L14.5 51.8594
L14.5 44.4844
Q20.2188 53.0312 31 53.0312
Q35.6875 53.0312 39.625 51.3438
Q43.5625 49.6562 45.5156 46.9219
Q47.4688 44.1875 48.25 40.4375
Q48.7344 37.9844 48.7344 31.8906
L48.7344 0
L39.9375 0
L39.9375 31.5469
Q39.9375 36.9219 38.9062 39.5781
Q37.8906 42.2344 35.2812 43.8125
Q32.6719 45.4062 29.1562 45.4062
Q23.5312 45.4062 19.4531 41.8438
Q15.375 38.2812 15.375 28.3281
L15.375 0
z
" id="ArialMT-6e"/>
     </defs>
     <g style="fill:#555555;" transform="translate(29.9509375 253.815)rotate(-90.0)scale(0.12 -0.12)">
      <use xlink:href="#ArialMT-41"/>
      <use x="64.94921875" xlink:href="#ArialMT-76"/>
      <use x="114.94921875" xlink:href="#ArialMT-65"/>
      <use x="170.564453125" xlink:href="#ArialMT-72"/>
      <use x="203.865234375" xlink:href="#ArialMT-61"/>
      <use x="259.48046875" xlink:href="#ArialMT-67"/>
      <use x="315.095703125" xlink:href="#ArialMT-65"/>
      <use x="370.7109375" xlink:href="#ArialMT-20"/>
      <use x="398.494140625" xlink:href="#ArialMT-4c"/>
      <use x="454.109375" xlink:href="#ArialMT-65"/>
      <use x="509.724609375" xlink:href="#ArialMT-6e"/>
      <use x="565.33984375" xlink:href="#ArialMT-67"/>
      <use x="620.955078125" xlink:href="#ArialMT-74"/>
      <use x="648.73828125" xlink:href="#ArialMT-68"/>
      <use x="704.353515625" xlink:href="#ArialMT-20"/>
      <use x="732.13671875" xlink:href="#ArialMT-6f"/>
      <use x="787.751953125" xlink:href="#ArialMT-66"/>
      <use x="815.53515625" xlink:href="#ArialMT-20"/>
      <use x="843.318359375" xlink:href="#ArialMT-56"/>
      <use x="904.517578125" xlink:href="#ArialMT-65"/>
      <use x="960.1328125" xlink:href="#ArialMT-72"/>
      <use x="993.43359375" xlink:href="#ArialMT-62"/>
      <use x="1049.04882812" xlink:href="#ArialMT-73"/>
     </g>
    </g>
   </g>
   <g id="line2d_28">
    <path clip-path="url(#p9ca27924af)" d="
M111.36 214.241
L157.44 214.241
L157.44 172.802
L111.36 172.802
L111.36 214.241" style="fill:none;stroke:#e24a33;stroke-linecap:round;stroke-width:1.75;"/>
   </g>
   <g id="line2d_29">
    <path clip-path="url(#p9ca27924af)" d="
M134.4 214.241
L134.4 274.681" style="fill:none;stroke:#e24a33;stroke-dasharray:6.000000,6.000000;stroke-dashoffset:0.0;stroke-width:1.75;"/>
   </g>
   <g id="line2d_30">
    <path clip-path="url(#p9ca27924af)" d="
M134.4 172.802
L134.4 115.577" style="fill:none;stroke:#e24a33;stroke-dasharray:6.000000,6.000000;stroke-dashoffset:0.0;stroke-width:1.75;"/>
   </g>
   <g id="line2d_31">
    <path clip-path="url(#p9ca27924af)" d="
M122.88 274.681
L145.92 274.681" style="fill:none;stroke:#000000;stroke-linecap:round;stroke-width:1.75;"/>
   </g>
   <g id="line2d_32">
    <path clip-path="url(#p9ca27924af)" d="
M122.88 115.577
L145.92 115.577" style="fill:none;stroke:#000000;stroke-linecap:round;stroke-width:1.75;"/>
   </g>
   <g id="line2d_33">
    <path clip-path="url(#p9ca27924af)" d="
M111.36 191.033
L157.44 191.033" style="fill:none;stroke:#988ed5;stroke-linecap:round;stroke-width:1.75;"/>
   </g>
   <g id="line2d_34">
    <path clip-path="url(#p9ca27924af)" d="
M111.36 193.505
L157.44 193.505" style="fill:none;stroke:#000000;stroke-dasharray:6.000000,6.000000;stroke-dashoffset:0.0;stroke-width:1.75;"/>
   </g>
   <g id="line2d_35">
    <defs>
     <path d="
M-3.5 0
L3.5 0
M0 3.5
L0 -3.5" id="mfe7611bb55"/>
    </defs>
    <g clip-path="url(#p9ca27924af)">
     <use style="fill:#0000ff;" x="134.4" xlink:href="#mfe7611bb55" y="288.084305669"/>
    </g>
   </g>
   <g id="line2d_36">
    <path clip-path="url(#p9ca27924af)" d="
M264.96 216.349
L311.04 216.349
L311.04 172.179
L264.96 172.179
L264.96 216.349" style="fill:none;stroke:#e24a33;stroke-linecap:round;stroke-width:1.75;"/>
   </g>
   <g id="line2d_37">
    <path clip-path="url(#p9ca27924af)" d="
M288 216.349
L288 282.6" style="fill:none;stroke:#e24a33;stroke-dasharray:6.000000,6.000000;stroke-dashoffset:0.0;stroke-width:1.75;"/>
   </g>
   <g id="line2d_38">
    <path clip-path="url(#p9ca27924af)" d="
M288 172.179
L288 106.089" style="fill:none;stroke:#e24a33;stroke-dasharray:6.000000,6.000000;stroke-dashoffset:0.0;stroke-width:1.75;"/>
   </g>
   <g id="line2d_39">
    <path clip-path="url(#p9ca27924af)" d="
M276.48 282.6
L299.52 282.6" style="fill:none;stroke:#000000;stroke-linecap:round;stroke-width:1.75;"/>
   </g>
   <g id="line2d_40">
    <path clip-path="url(#p9ca27924af)" d="
M276.48 106.089
L299.52 106.089" style="fill:none;stroke:#000000;stroke-linecap:round;stroke-width:1.75;"/>
   </g>
   <g id="line2d_41">
    <path clip-path="url(#p9ca27924af)" d="
M264.96 193.149
L311.04 193.149" style="fill:none;stroke:#988ed5;stroke-linecap:round;stroke-width:1.75;"/>
   </g>
   <g id="line2d_42">
    <path clip-path="url(#p9ca27924af)" d="
M264.96 194.747
L311.04 194.747" style="fill:none;stroke:#000000;stroke-dasharray:6.000000,6.000000;stroke-dashoffset:0.0;stroke-width:1.75;"/>
   </g>
   <g id="line2d_43">
    <g clip-path="url(#p9ca27924af)">
     <use style="fill:#0000ff;" x="288.0" xlink:href="#mfe7611bb55" y="285.952455795"/>
     <use style="fill:#0000ff;" x="288.0" xlink:href="#mfe7611bb55" y="286.349875104"/>
     <use style="fill:#0000ff;" x="288.0" xlink:href="#mfe7611bb55" y="303.149298409"/>
     <use style="fill:#0000ff;" x="288.0" xlink:href="#mfe7611bb55" y="286.678723404"/>
     <use style="fill:#0000ff;" x="288.0" xlink:href="#mfe7611bb55" y="283.941327623"/>
     <use style="fill:#0000ff;" x="288.0" xlink:href="#mfe7611bb55" y="284.375049504"/>
     <use style="fill:#0000ff;" x="288.0" xlink:href="#mfe7611bb55" y="293.212173914"/>
     <use style="fill:#0000ff;" x="288.0" xlink:href="#mfe7611bb55" y="308.068322981"/>
     <use style="fill:#0000ff;" x="288.0" xlink:href="#mfe7611bb55" y="295.383673469"/>
     <use style="fill:#0000ff;" x="288.0" xlink:href="#mfe7611bb55" y="286.252249637"/>
     <use style="fill:#0000ff;" x="288.0" xlink:href="#mfe7611bb55" y="298.539657854"/>
     <use style="fill:#0000ff;" x="288.0" xlink:href="#mfe7611bb55" y="287.038356165"/>
     <use style="fill:#0000ff;" x="288.0" xlink:href="#mfe7611bb55" y="294.255445545"/>
     <use style="fill:#0000ff;" x="288.0" xlink:href="#mfe7611bb55" y="286.954105263"/>
     <use style="fill:#0000ff;" x="288.0" xlink:href="#mfe7611bb55" y="288.471191136"/>
     <use style="fill:#0000ff;" x="288.0" xlink:href="#mfe7611bb55" y="102.158490566"/>
     <use style="fill:#0000ff;" x="288.0" xlink:href="#mfe7611bb55" y="99.8136986303"/>
     <use style="fill:#0000ff;" x="288.0" xlink:href="#mfe7611bb55" y="104.462068965"/>
     <use style="fill:#0000ff;" x="288.0" xlink:href="#mfe7611bb55" y="102.311498258"/>
     <use style="fill:#0000ff;" x="288.0" xlink:href="#mfe7611bb55" y="101.719518073"/>
     <use style="fill:#0000ff;" x="288.0" xlink:href="#mfe7611bb55" y="95.1214026597"/>
    </g>
   </g>
   <g id="line2d_44">
    <path clip-path="url(#p9ca27924af)" d="
M418.56 224.099
L464.64 224.099
L464.64 177.734
L418.56 177.734
L418.56 224.099" style="fill:none;stroke:#e24a33;stroke-linecap:round;stroke-width:1.75;"/>
   </g>
   <g id="line2d_45">
    <path clip-path="url(#p9ca27924af)" d="
M441.6 224.099
L441.6 293.478" style="fill:none;stroke:#e24a33;stroke-dasharray:6.000000,6.000000;stroke-dashoffset:0.0;stroke-width:1.75;"/>
   </g>
   <g id="line2d_46">
    <path clip-path="url(#p9ca27924af)" d="
M441.6 177.734
L441.6 108.678" style="fill:none;stroke:#e24a33;stroke-dasharray:6.000000,6.000000;stroke-dashoffset:0.0;stroke-width:1.75;"/>
   </g>
   <g id="line2d_47">
    <path clip-path="url(#p9ca27924af)" d="
M430.08 293.478
L453.12 293.478" style="fill:none;stroke:#000000;stroke-linecap:round;stroke-width:1.75;"/>
   </g>
   <g id="line2d_48">
    <path clip-path="url(#p9ca27924af)" d="
M430.08 108.678
L453.12 108.678" style="fill:none;stroke:#000000;stroke-linecap:round;stroke-width:1.75;"/>
   </g>
   <g id="line2d_49">
    <path clip-path="url(#p9ca27924af)" d="
M418.56 200.192
L464.64 200.192" style="fill:none;stroke:#988ed5;stroke-linecap:round;stroke-width:1.75;"/>
   </g>
   <g id="line2d_50">
    <path clip-path="url(#p9ca27924af)" d="
M418.56 201.613
L464.64 201.613" style="fill:none;stroke:#000000;stroke-dasharray:6.000000,6.000000;stroke-dashoffset:0.0;stroke-width:1.75;"/>
   </g>
   <g id="line2d_51">
    <g clip-path="url(#p9ca27924af)">
     <use style="fill:#0000ff;" x="441.6" xlink:href="#mfe7611bb55" y="307.543653251"/>
     <use style="fill:#0000ff;" x="441.6" xlink:href="#mfe7611bb55" y="306.872164949"/>
     <use style="fill:#0000ff;" x="441.6" xlink:href="#mfe7611bb55" y="294.45882353"/>
     <use style="fill:#0000ff;" x="441.6" xlink:href="#mfe7611bb55" y="297.077192983"/>
     <use style="fill:#0000ff;" x="441.6" xlink:href="#mfe7611bb55" y="308.886460033"/>
     <use style="fill:#0000ff;" x="441.6" xlink:href="#mfe7611bb55" y="308.516640746"/>
     <use style="fill:#0000ff;" x="441.6" xlink:href="#mfe7611bb55" y="299.053808751"/>
     <use style="fill:#0000ff;" x="441.6" xlink:href="#mfe7611bb55" y="294.385955056"/>
     <use style="fill:#0000ff;" x="441.6" xlink:href="#mfe7611bb55" y="296.028679246"/>
     <use style="fill:#0000ff;" x="441.6" xlink:href="#mfe7611bb55" y="300.761745828"/>
     <use style="fill:#0000ff;" x="441.6" xlink:href="#mfe7611bb55" y="304.738544474"/>
     <use style="fill:#0000ff;" x="441.6" xlink:href="#mfe7611bb55" y="294.689124668"/>
     <use style="fill:#0000ff;" x="441.6" xlink:href="#mfe7611bb55" y="299.459627329"/>
     <use style="fill:#0000ff;" x="441.6" xlink:href="#mfe7611bb55" y="306.285517242"/>
     <use style="fill:#0000ff;" x="441.6" xlink:href="#mfe7611bb55" y="293.809478673"/>
     <use style="fill:#0000ff;" x="441.6" xlink:href="#mfe7611bb55" y="298.496760259"/>
     <use style="fill:#0000ff;" x="441.6" xlink:href="#mfe7611bb55" y="306.995498392"/>
     <use style="fill:#0000ff;" x="441.6" xlink:href="#mfe7611bb55" y="305.342218401"/>
     <use style="fill:#0000ff;" x="441.6" xlink:href="#mfe7611bb55" y="299.491390728"/>
     <use style="fill:#0000ff;" x="441.6" xlink:href="#mfe7611bb55" y="306.778444748"/>
     <use style="fill:#0000ff;" x="441.6" xlink:href="#mfe7611bb55" y="295.476923077"/>
     <use style="fill:#0000ff;" x="441.6" xlink:href="#mfe7611bb55" y="301.541752578"/>
     <use style="fill:#0000ff;" x="441.6" xlink:href="#mfe7611bb55" y="297.422963952"/>
     <use style="fill:#0000ff;" x="441.6" xlink:href="#mfe7611bb55" y="307.438847385"/>
     <use style="fill:#0000ff;" x="441.6" xlink:href="#mfe7611bb55" y="306.1872"/>
     <use style="fill:#0000ff;" x="441.6" xlink:href="#mfe7611bb55" y="298.720532586"/>
     <use style="fill:#0000ff;" x="441.6" xlink:href="#mfe7611bb55" y="302.046303502"/>
     <use style="fill:#0000ff;" x="441.6" xlink:href="#mfe7611bb55" y="294.342281879"/>
     <use style="fill:#0000ff;" x="441.6" xlink:href="#mfe7611bb55" y="299.152173914"/>
     <use style="fill:#0000ff;" x="441.6" xlink:href="#mfe7611bb55" y="296.461747573"/>
     <use style="fill:#0000ff;" x="441.6" xlink:href="#mfe7611bb55" y="306.977142857"/>
     <use style="fill:#0000ff;" x="441.6" xlink:href="#mfe7611bb55" y="301.093483147"/>
     <use style="fill:#0000ff;" x="441.6" xlink:href="#mfe7611bb55" y="307.653807106"/>
     <use style="fill:#0000ff;" x="441.6" xlink:href="#mfe7611bb55" y="295.628571428"/>
     <use style="fill:#0000ff;" x="441.6" xlink:href="#mfe7611bb55" y="301.203069054"/>
     <use style="fill:#0000ff;" x="441.6" xlink:href="#mfe7611bb55" y="303.773684211"/>
     <use style="fill:#0000ff;" x="441.6" xlink:href="#mfe7611bb55" y="303.882051282"/>
     <use style="fill:#0000ff;" x="441.6" xlink:href="#mfe7611bb55" y="297.40887971"/>
     <use style="fill:#0000ff;" x="441.6" xlink:href="#mfe7611bb55" y="301.544262295"/>
     <use style="fill:#0000ff;" x="441.6" xlink:href="#mfe7611bb55" y="302.202144773"/>
     <use style="fill:#0000ff;" x="441.6" xlink:href="#mfe7611bb55" y="303.43902439"/>
     <use style="fill:#0000ff;" x="441.6" xlink:href="#mfe7611bb55" y="296.487046632"/>
     <use style="fill:#0000ff;" x="441.6" xlink:href="#mfe7611bb55" y="293.791898734"/>
     <use style="fill:#0000ff;" x="441.6" xlink:href="#mfe7611bb55" y="294.493670886"/>
     <use style="fill:#0000ff;" x="441.6" xlink:href="#mfe7611bb55" y="295.095462795"/>
     <use style="fill:#0000ff;" x="441.6" xlink:href="#mfe7611bb55" y="308.410169492"/>
     <use style="fill:#0000ff;" x="441.6" xlink:href="#mfe7611bb55" y="301.820869565"/>
     <use style="fill:#0000ff;" x="441.6" xlink:href="#mfe7611bb55" y="295.800000001"/>
     <use style="fill:#0000ff;" x="441.6" xlink:href="#mfe7611bb55" y="296.847251687"/>
     <use style="fill:#0000ff;" x="441.6" xlink:href="#mfe7611bb55" y="304.696551724"/>
     <use style="fill:#0000ff;" x="441.6" xlink:href="#mfe7611bb55" y="297.125316456"/>
     <use style="fill:#0000ff;" x="441.6" xlink:href="#mfe7611bb55" y="301.658823529"/>
     <use style="fill:#0000ff;" x="441.6" xlink:href="#mfe7611bb55" y="298.505263158"/>
     <use style="fill:#0000ff;" x="441.6" xlink:href="#mfe7611bb55" y="297.260183968"/>
     <use style="fill:#0000ff;" x="441.6" xlink:href="#mfe7611bb55" y="301.098139535"/>
     <use style="fill:#0000ff;" x="441.6" xlink:href="#mfe7611bb55" y="295.438309859"/>
     <use style="fill:#0000ff;" x="441.6" xlink:href="#mfe7611bb55" y="303.835714286"/>
     <use style="fill:#0000ff;" x="441.6" xlink:href="#mfe7611bb55" y="304.378881988"/>
     <use style="fill:#0000ff;" x="441.6" xlink:href="#mfe7611bb55" y="301.74084507"/>
     <use style="fill:#0000ff;" x="441.6" xlink:href="#mfe7611bb55" y="298.183695652"/>
     <use style="fill:#0000ff;" x="441.6" xlink:href="#mfe7611bb55" y="294.844479004"/>
     <use style="fill:#0000ff;" x="441.6" xlink:href="#mfe7611bb55" y="303.807748184"/>
     <use style="fill:#0000ff;" x="441.6" xlink:href="#mfe7611bb55" y="293.745205479"/>
     <use style="fill:#0000ff;" x="441.6" xlink:href="#mfe7611bb55" y="298.189903846"/>
     <use style="fill:#0000ff;" x="441.6" xlink:href="#mfe7611bb55" y="299.174566474"/>
     <use style="fill:#0000ff;" x="441.6" xlink:href="#mfe7611bb55" y="301.570828961"/>
     <use style="fill:#0000ff;" x="441.6" xlink:href="#mfe7611bb55" y="304.277837838"/>
     <use style="fill:#0000ff;" x="441.6" xlink:href="#mfe7611bb55" y="303.740425532"/>
     <use style="fill:#0000ff;" x="441.6" xlink:href="#mfe7611bb55" y="308.591772152"/>
     <use style="fill:#0000ff;" x="441.6" xlink:href="#mfe7611bb55" y="302.791304347"/>
     <use style="fill:#0000ff;" x="441.6" xlink:href="#mfe7611bb55" y="296.818348624"/>
     <use style="fill:#0000ff;" x="441.6" xlink:href="#mfe7611bb55" y="294.296678966"/>
     <use style="fill:#0000ff;" x="441.6" xlink:href="#mfe7611bb55" y="298.95582686"/>
     <use style="fill:#0000ff;" x="441.6" xlink:href="#mfe7611bb55" y="298.095652174"/>
     <use style="fill:#0000ff;" x="441.6" xlink:href="#mfe7611bb55" y="302.084444445"/>
     <use style="fill:#0000ff;" x="441.6" xlink:href="#mfe7611bb55" y="301.077486911"/>
     <use style="fill:#0000ff;" x="441.6" xlink:href="#mfe7611bb55" y="304.292817679"/>
     <use style="fill:#0000ff;" x="441.6" xlink:href="#mfe7611bb55" y="307.24477612"/>
     <use style="fill:#0000ff;" x="441.6" xlink:href="#mfe7611bb55" y="294.92203898"/>
     <use style="fill:#0000ff;" x="441.6" xlink:href="#mfe7611bb55" y="294.75"/>
     <use style="fill:#0000ff;" x="441.6" xlink:href="#mfe7611bb55" y="302.657142858"/>
     <use style="fill:#0000ff;" x="441.6" xlink:href="#mfe7611bb55" y="294.604536862"/>
     <use style="fill:#0000ff;" x="441.6" xlink:href="#mfe7611bb55" y="308.004814004"/>
     <use style="fill:#0000ff;" x="441.6" xlink:href="#mfe7611bb55" y="297.843934426"/>
     <use style="fill:#0000ff;" x="441.6" xlink:href="#mfe7611bb55" y="299.136099585"/>
     <use style="fill:#0000ff;" x="441.6" xlink:href="#mfe7611bb55" y="295.241563055"/>
     <use style="fill:#0000ff;" x="441.6" xlink:href="#mfe7611bb55" y="302.061654136"/>
     <use style="fill:#0000ff;" x="441.6" xlink:href="#mfe7611bb55" y="300.972413793"/>
     <use style="fill:#0000ff;" x="441.6" xlink:href="#mfe7611bb55" y="308.823696683"/>
     <use style="fill:#0000ff;" x="441.6" xlink:href="#mfe7611bb55" y="308.586026201"/>
     <use style="fill:#0000ff;" x="441.6" xlink:href="#mfe7611bb55" y="306.444012283"/>
     <use style="fill:#0000ff;" x="441.6" xlink:href="#mfe7611bb55" y="297.714008322"/>
     <use style="fill:#0000ff;" x="441.6" xlink:href="#mfe7611bb55" y="302.230188679"/>
     <use style="fill:#0000ff;" x="441.6" xlink:href="#mfe7611bb55" y="299.994957983"/>
     <use style="fill:#0000ff;" x="441.6" xlink:href="#mfe7611bb55" y="308.853061225"/>
     <use style="fill:#0000ff;" x="441.6" xlink:href="#mfe7611bb55" y="302.677251184"/>
     <use style="fill:#0000ff;" x="441.6" xlink:href="#mfe7611bb55" y="300.352992701"/>
     <use style="fill:#0000ff;" x="441.6" xlink:href="#mfe7611bb55" y="301.478571429"/>
     <use style="fill:#0000ff;" x="441.6" xlink:href="#mfe7611bb55" y="302.545733042"/>
     <use style="fill:#0000ff;" x="441.6" xlink:href="#mfe7611bb55" y="308.016541353"/>
     <use style="fill:#0000ff;" x="441.6" xlink:href="#mfe7611bb55" y="308.002816901"/>
     <use style="fill:#0000ff;" x="441.6" xlink:href="#mfe7611bb55" y="296.097068404"/>
     <use style="fill:#0000ff;" x="441.6" xlink:href="#mfe7611bb55" y="306.30457097"/>
     <use style="fill:#0000ff;" x="441.6" xlink:href="#mfe7611bb55" y="305.950684931"/>
     <use style="fill:#0000ff;" x="441.6" xlink:href="#mfe7611bb55" y="301.710780669"/>
     <use style="fill:#0000ff;" x="441.6" xlink:href="#mfe7611bb55" y="307.713043478"/>
     <use style="fill:#0000ff;" x="441.6" xlink:href="#mfe7611bb55" y="306.859147181"/>
     <use style="fill:#0000ff;" x="441.6" xlink:href="#mfe7611bb55" y="299.828571429"/>
     <use style="fill:#0000ff;" x="441.6" xlink:href="#mfe7611bb55" y="293.8"/>
     <use style="fill:#0000ff;" x="441.6" xlink:href="#mfe7611bb55" y="297.757894736"/>
     <use style="fill:#0000ff;" x="441.6" xlink:href="#mfe7611bb55" y="297.409655173"/>
     <use style="fill:#0000ff;" x="441.6" xlink:href="#mfe7611bb55" y="294.02208"/>
     <use style="fill:#0000ff;" x="441.6" xlink:href="#mfe7611bb55" y="305.061889251"/>
     <use style="fill:#0000ff;" x="441.6" xlink:href="#mfe7611bb55" y="306.313264347"/>
     <use style="fill:#0000ff;" x="441.6" xlink:href="#mfe7611bb55" y="299.006756757"/>
     <use style="fill:#0000ff;" x="441.6" xlink:href="#mfe7611bb55" y="301.876557863"/>
     <use style="fill:#0000ff;" x="441.6" xlink:href="#mfe7611bb55" y="307.189473684"/>
     <use style="fill:#0000ff;" x="441.6" xlink:href="#mfe7611bb55" y="298.376782557"/>
     <use style="fill:#0000ff;" x="441.6" xlink:href="#mfe7611bb55" y="307.607142857"/>
     <use style="fill:#0000ff;" x="441.6" xlink:href="#mfe7611bb55" y="301.019698492"/>
     <use style="fill:#0000ff;" x="441.6" xlink:href="#mfe7611bb55" y="301.134065935"/>
     <use style="fill:#0000ff;" x="441.6" xlink:href="#mfe7611bb55" y="298.869527897"/>
     <use style="fill:#0000ff;" x="441.6" xlink:href="#mfe7611bb55" y="301.521259843"/>
     <use style="fill:#0000ff;" x="441.6" xlink:href="#mfe7611bb55" y="304.268354431"/>
     <use style="fill:#0000ff;" x="441.6" xlink:href="#mfe7611bb55" y="295.885628141"/>
     <use style="fill:#0000ff;" x="441.6" xlink:href="#mfe7611bb55" y="309.439790576"/>
     <use style="fill:#0000ff;" x="441.6" xlink:href="#mfe7611bb55" y="299.207913669"/>
     <use style="fill:#0000ff;" x="441.6" xlink:href="#mfe7611bb55" y="308.898591549"/>
     <use style="fill:#0000ff;" x="441.6" xlink:href="#mfe7611bb55" y="297.585798817"/>
     <use style="fill:#0000ff;" x="441.6" xlink:href="#mfe7611bb55" y="308.498583569"/>
     <use style="fill:#0000ff;" x="441.6" xlink:href="#mfe7611bb55" y="303.523887974"/>
     <use style="fill:#0000ff;" x="441.6" xlink:href="#mfe7611bb55" y="309.289655173"/>
     <use style="fill:#0000ff;" x="441.6" xlink:href="#mfe7611bb55" y="294.785526316"/>
     <use style="fill:#0000ff;" x="441.6" xlink:href="#mfe7611bb55" y="301.567419738"/>
     <use style="fill:#0000ff;" x="441.6" xlink:href="#mfe7611bb55" y="294.327607362"/>
     <use style="fill:#0000ff;" x="441.6" xlink:href="#mfe7611bb55" y="299.3456446"/>
     <use style="fill:#0000ff;" x="441.6" xlink:href="#mfe7611bb55" y="297.0"/>
     <use style="fill:#0000ff;" x="441.6" xlink:href="#mfe7611bb55" y="300.067283237"/>
     <use style="fill:#0000ff;" x="441.6" xlink:href="#mfe7611bb55" y="298.390757855"/>
     <use style="fill:#0000ff;" x="441.6" xlink:href="#mfe7611bb55" y="293.927586207"/>
     <use style="fill:#0000ff;" x="441.6" xlink:href="#mfe7611bb55" y="307.279148936"/>
     <use style="fill:#0000ff;" x="441.6" xlink:href="#mfe7611bb55" y="308.336170212"/>
     <use style="fill:#0000ff;" x="441.6" xlink:href="#mfe7611bb55" y="301.308557457"/>
     <use style="fill:#0000ff;" x="441.6" xlink:href="#mfe7611bb55" y="294.0"/>
     <use style="fill:#0000ff;" x="441.6" xlink:href="#mfe7611bb55" y="101.31643454"/>
     <use style="fill:#0000ff;" x="441.6" xlink:href="#mfe7611bb55" y="99.0"/>
     <use style="fill:#0000ff;" x="441.6" xlink:href="#mfe7611bb55" y="94.1894366193"/>
     <use style="fill:#0000ff;" x="441.6" xlink:href="#mfe7611bb55" y="107.752173913"/>
     <use style="fill:#0000ff;" x="441.6" xlink:href="#mfe7611bb55" y="104.866666667"/>
     <use style="fill:#0000ff;" x="441.6" xlink:href="#mfe7611bb55" y="102.249452954"/>
     <use style="fill:#0000ff;" x="441.6" xlink:href="#mfe7611bb55" y="99.6352941173"/>
     <use style="fill:#0000ff;" x="441.6" xlink:href="#mfe7611bb55" y="99.2254269453"/>
     <use style="fill:#0000ff;" x="441.6" xlink:href="#mfe7611bb55" y="97.1834862383"/>
     <use style="fill:#0000ff;" x="441.6" xlink:href="#mfe7611bb55" y="94.8650602407"/>
     <use style="fill:#0000ff;" x="441.6" xlink:href="#mfe7611bb55" y="94.8558139535"/>
     <use style="fill:#0000ff;" x="441.6" xlink:href="#mfe7611bb55" y="99.1017123283"/>
     <use style="fill:#0000ff;" x="441.6" xlink:href="#mfe7611bb55" y="94.9068088595"/>
     <use style="fill:#0000ff;" x="441.6" xlink:href="#mfe7611bb55" y="95.0049557527"/>
     <use style="fill:#0000ff;" x="441.6" xlink:href="#mfe7611bb55" y="105.080898877"/>
     <use style="fill:#0000ff;" x="441.6" xlink:href="#mfe7611bb55" y="95.5987730062"/>
     <use style="fill:#0000ff;" x="441.6" xlink:href="#mfe7611bb55" y="96.811055276"/>
     <use style="fill:#0000ff;" x="441.6" xlink:href="#mfe7611bb55" y="107.197894736"/>
     <use style="fill:#0000ff;" x="441.6" xlink:href="#mfe7611bb55" y="105.483467094"/>
     <use style="fill:#0000ff;" x="441.6" xlink:href="#mfe7611bb55" y="105.252631579"/>
     <use style="fill:#0000ff;" x="441.6" xlink:href="#mfe7611bb55" y="99.9150192549"/>
     <use style="fill:#0000ff;" x="441.6" xlink:href="#mfe7611bb55" y="107.431939163"/>
     <use style="fill:#0000ff;" x="441.6" xlink:href="#mfe7611bb55" y="105.707653701"/>
     <use style="fill:#0000ff;" x="441.6" xlink:href="#mfe7611bb55" y="101.950873965"/>
     <use style="fill:#0000ff;" x="441.6" xlink:href="#mfe7611bb55" y="100.990366492"/>
     <use style="fill:#0000ff;" x="441.6" xlink:href="#mfe7611bb55" y="102.835897436"/>
     <use style="fill:#0000ff;" x="441.6" xlink:href="#mfe7611bb55" y="100.8302521"/>
     <use style="fill:#0000ff;" x="441.6" xlink:href="#mfe7611bb55" y="104.362904809"/>
     <use style="fill:#0000ff;" x="441.6" xlink:href="#mfe7611bb55" y="102.70093458"/>
     <use style="fill:#0000ff;" x="441.6" xlink:href="#mfe7611bb55" y="103.134065934"/>
     <use style="fill:#0000ff;" x="441.6" xlink:href="#mfe7611bb55" y="97.6465822789"/>
     <use style="fill:#0000ff;" x="441.6" xlink:href="#mfe7611bb55" y="100.174299835"/>
     <use style="fill:#0000ff;" x="441.6" xlink:href="#mfe7611bb55" y="107.916024341"/>
     <use style="fill:#0000ff;" x="441.6" xlink:href="#mfe7611bb55" y="100.713461538"/>
     <use style="fill:#0000ff;" x="441.6" xlink:href="#mfe7611bb55" y="101.54874851"/>
     <use style="fill:#0000ff;" x="441.6" xlink:href="#mfe7611bb55" y="106.302548726"/>
     <use style="fill:#0000ff;" x="441.6" xlink:href="#mfe7611bb55" y="106.674831763"/>
     <use style="fill:#0000ff;" x="441.6" xlink:href="#mfe7611bb55" y="97.3665"/>
     <use style="fill:#0000ff;" x="441.6" xlink:href="#mfe7611bb55" y="102.780660955"/>
     <use style="fill:#0000ff;" x="441.6" xlink:href="#mfe7611bb55" y="103.981935484"/>
     <use style="fill:#0000ff;" x="441.6" xlink:href="#mfe7611bb55" y="107.452173913"/>
     <use style="fill:#0000ff;" x="441.6" xlink:href="#mfe7611bb55" y="102.191208791"/>
     <use style="fill:#0000ff;" x="441.6" xlink:href="#mfe7611bb55" y="100.030483271"/>
     <use style="fill:#0000ff;" x="441.6" xlink:href="#mfe7611bb55" y="106.123809524"/>
     <use style="fill:#0000ff;" x="441.6" xlink:href="#mfe7611bb55" y="105.923076924"/>
    </g>
   </g>
   <g id="patch_3">
    <path d="
M57.6 39.6
L518.4 39.6" style="fill:none;stroke:#ffffff;stroke-linecap:square;stroke-linejoin:miter;"/>
   </g>
   <g id="patch_4">
    <path d="
M518.4 336.6
L518.4 39.6" style="fill:none;stroke:#ffffff;stroke-linecap:square;stroke-linejoin:miter;"/>
   </g>
   <g id="patch_5">
    <path d="
M57.6 336.6
L518.4 336.6" style="fill:none;stroke:#ffffff;stroke-linecap:square;stroke-linejoin:miter;"/>
   </g>
   <g id="patch_6">
    <path d="
M57.6 336.6
L57.6 39.6" style="fill:none;stroke:#ffffff;stroke-linecap:square;stroke-linejoin:miter;"/>
   </g>
  </g>
 </g>
 <defs>
  <clipPath id="p9ca27924af">
   <rect height="297.0" width="460.8" x="57.6" y="39.6"/>
  </clipPath>
 </defs>
</svg>
